#!OML:ASF Y:\EmotionMaleHayes\Project 1\Capture day 1\Session 1\Male1.ASF
:FULLY-SPECIFIED
:DEGREES
299
root -29.2629 16.9598 0.890654 194.463 62.9198 188.718
lowerback 12.7824 2.58155 4.87053
upperback 2.6934 4.22022 0.131909
thorax -3.97847 2.10275 -3.26822
lowerneck -22.7451 -0.58615 2.52195
upperneck 24.5975 1.04705 -8.15931
head 11.9221 -0.246173 -3.29267
rclavicle 1.82882e-014 1.98785e-016
rhumerus -25.4803 27.7746 -96.9279
rradius 41.7573
rwrist -8.76158
rhand -16.5457 -30.8978
rfingers 7.12502
rthumb 9.67367 -60.6556
lclavicle 1.82882e-014 1.98785e-016
lhumerus -43.4049 -9.31672 90.4246
lradius 35.0614
lwrist 16.055
lhand -32.4238 -19.6157
lfingers 7.12502
lthumb -5.65787 10.2887
rfemur 7.53695 -14.3336 17.845
rtibia 4.1594
rfoot -22.1608 -10.8644
rtoes -9.00012
lfemur -24.9437 12.066 -4.469
ltibia 38.9777
lfoot -12.3587 -6.25803
ltoes -19.2796
300
root -29.2197 16.9501 0.871297 194.747 62.1849 188.879
lowerback 12.7784 2.75439 4.93434
upperback 2.72781 4.44869 -0.0616328
thorax -3.89895 2.21874 -3.53748
lowerneck -22.4429 -0.817032 2.3929
upperneck 24.4324 0.709544 -7.99605
head 11.7744 -0.381399 -3.25251
rclavicle -5.24636e-014 -2.74944e-014
rhumerus -24.9085 27.9462 -96.8892
rradius 43.2495
rwrist -9.06686
rhand -15.909 -30.7548
rfingers 7.12502
rthumb 10.2879 -60.4832
lclavicle -5.24636e-014 -2.74944e-014
lhumerus -43.9158 -8.88463 89.7249
lradius 34.8657
lwrist 16.6961
lhand -32.516 -19.5433
lfingers 7.12502
lthumb -5.74691 10.3588
rfemur 7.82949 -14.3656 18.0784
rtibia 3.90222
rfoot -22.1723 -10.8663
rtoes -8.88161
lfemur -25.5703 12.5678 -4.03596
ltibia 38.6425
lfoot -12.7404 -4.83817
ltoes -19.1266
301
root -29.1745 16.9501 0.845459 194.52 61.2337 188.755
lowerback 13.0107 2.73874 4.8701
upperback 2.8404 4.43351 -0.166405
thorax -3.90561 2.21757 -3.62037
lowerneck -22.1717 -0.985269 2.21595
upperneck 24.3018 0.545043 -8.02337
head 11.6611 -0.466918 -3.24912
rclavicle -2.72459e-014 1.26725e-014
rhumerus -24.2803 28.2322 -96.6404
rradius 44.7917
rwrist -9.24051
rhand -14.2464 -31.0595
rfingers 7.12502
rthumb 11.8915 -60.7018
lclavicle -2.72459e-014 1.26725e-014
lhumerus -44.4994 -8.26456 89.1251
lradius 34.7312
lwrist 17.1537
lhand -32.6343 -19.1465
lfingers 7.12502
lthumb -5.86116 10.7524
rfemur 8.48955 -14.2678 18.1857
rtibia 3.53707
rfoot -22.203 -10.986
rtoes -8.78528
lfemur -25.8173 12.4597 -3.64039
ltibia 37.9688
lfoot -13.1511 -3.54865
ltoes -16.8576
302
root -29.1304 16.9389 0.82245 194.891 60.6603 188.992
lowerback 13.0318 2.87281 4.70662
upperback 2.91542 4.59066 -0.217038
thorax -3.83223 2.30251 -3.60325
lowerneck -22.1405 -1.114 1.99509
upperneck 24.2738 0.454177 -8.04039
head 11.6398 -0.527678 -3.23048
rclavicle -1.74434e-014 -1.44119e-014
rhumerus -23.5795 28.761 -96.3502
rradius 46.1009
rwrist -9.38923
rhand -13.3082 -30.9419
rfingers 7.12502
rthumb 12.7961 -60.5297
lclavicle -1.74434e-014 -1.44119e-014
lhumerus -45.0231 -7.6576 88.5705
lradius 34.6061
lwrist 17.3353
lhand -32.5807 -18.6678
lfingers 7.12502
lthumb -5.80939 11.2326
rfemur 8.63884 -13.9237 18.5607
rtibia 3.33308
rfoot -21.9908 -11.1549
rtoes -9.53296
lfemur -26.2682 12.9079 -3.07708
ltibia 37.2449
lfoot -13.4236 -2.29848
ltoes -15.2764
303
root -29.0881 16.9236 0.79566 195.369 60.0094 189.368
lowerback 13.0026 2.99947 4.70411
upperback 3.10147 4.76104 -0.264072
thorax -3.60111 2.40273 -3.66505
lowerneck -22.3405 -1.22638 1.75036
upperneck 24.1961 0.333056 -7.90356
head 11.6422 -0.592776 -3.15838
rclavicle -3.08365e-014 -2.88238e-015
rhumerus -22.7098 29.3488 -95.9458
rradius 47.3429
rwrist -9.52139
rhand -13.4428 -30.4608
rfingers 7.12502
rthumb 12.6663 -60.0567
lclavicle -3.08365e-014 -2.88238e-015
lhumerus -45.4039 -7.2926 88.0687
lradius 34.5459
lwrist 17.4725
lhand -32.3248 -18.1789
lfingers 7.12502
lthumb -5.56229 11.7281
rfemur 8.77759 -13.7617 18.9658
rtibia 3.23446
rfoot -21.8972 -11.2398
rtoes -10.124
lfemur -26.8278 13.3178 -2.44905
ltibia 36.6404
lfoot -13.6972 -1.08816
ltoes -14.9536
304
root -29.0355 16.9085 0.775996 196.287 59.6146 190.443
lowerback 13.2746 3.21178 4.79209
upperback 3.19866 5.07703 -0.23409
thorax -3.61274 2.56422 -3.74415
lowerneck -22.4651 -1.33349 1.6383
upperneck 24.285 0.231317 -7.89054
head 11.6949 -0.648722 -3.15599
rclavicle -6.50026e-014 7.45443e-015
rhumerus -22.1223 29.8083 -95.675
rradius 48.738
rwrist -9.45298
rhand -13.7489 -30.2022
rfingers 7.12502
rthumb 12.3712 -59.8161
lclavicle -6.50026e-014 7.45443e-015
lhumerus -46.1676 -7.07614 87.5831
lradius 34.7544
lwrist 17.8104
lhand -32.1372 -17.8833
lfingers 7.12502
lthumb -5.38124 12.0284
rfemur 9.0778 -13.4373 19.7105
rtibia 3.11141
rfoot -21.9895 -11.254
rtoes -10.8214
lfemur -26.9489 14.0241 -1.28224
ltibia 35.9034
lfoot -14.2506 -0.00368151
ltoes -14.0608
305
root -28.9904 16.8913 0.736464 196.228 59.2249 190.139
lowerback 13.2574 3.35613 4.42541
upperback 3.28981 5.2115 -0.432049
thorax -3.50883 2.64033 -3.76032
lowerneck -22.4306 -1.43388 1.52765
upperneck 24.1165 0.128345 -7.9277
head 11.6185 -0.708855 -3.16134
rclavicle -7.15625e-015 1.78906e-014
rhumerus -21.3966 30.4602 -95.2714
rradius 50.1012
rwrist -9.64275
rhand -13.8989 -30.2758
rfingers 7.12502
rthumb 12.2266 -59.8985
lclavicle -7.15625e-015 1.78906e-014
lhumerus -46.7817 -6.84318 87.1011
lradius 34.7778
lwrist 18.2906
lhand -32.658 -18.016
lfingers 7.12502
lthumb -5.88402 11.8823
rfemur 9.18774 -13.9191 19.3644
rtibia 3.10651
rfoot -21.833 -10.9333
rtoes -13.1619
lfemur -27.3246 14.4603 -1.12328
ltibia 35.025
lfoot -14.6444 1.06027
ltoes -13.6827
306
root -28.9456 16.8672 0.698096 196.627 58.7572 190.367
lowerback 13.2997 3.48409 4.38544
upperback 3.34223 5.37457 -0.57849
thorax -3.45066 2.7264 -3.91497
lowerneck -22.3125 -1.54881 1.46888
upperneck 23.9653 0.0271395 -8.08114
head 11.5329 -0.774729 -3.21711
rclavicle 3.25013e-014 9.93923e-015
rhumerus -20.5759 30.9778 -94.7408
rradius 51.2827
rwrist -9.95719
rhand -14.1408 -30.0628
rfingers 7.12502
rthumb 11.9933 -59.6992
lclavicle 3.25013e-014 9.93923e-015
lhumerus -47.3607 -6.61149 86.59
lradius 34.6738
lwrist 18.6157
lhand -32.9726 -18.1786
lfingers 7.12502
lthumb -6.18781 11.7111
rfemur 9.25156 -14.08 19.4964
rtibia 3.0955
rfoot -21.7517 -10.9823
rtoes -15.034
lfemur -27.8713 14.9992 -0.635455
ltibia 34.3146
lfoot -14.5624 2.37779
ltoes -15.0921
307
root -28.8995 16.8432 0.658394 196.717 58.3706 190.286
lowerback 13.3869 3.61337 4.16415
upperback 3.38312 5.51527 -0.762111
thorax -3.4441 2.80035 -4.00904
lowerneck -22.009 -1.64047 1.14699
upperneck 23.7377 -0.0691837 -7.85702
head 11.384 -0.811669 -3.07988
rclavicle -4.17448e-015 -4.77083e-015
rhumerus -19.9461 31.3386 -94.3122
rradius 52.4596
rwrist -10.1573
rhand -14.9168 -29.809
rfingers 7.12502
rthumb 11.2449 -59.4876
lclavicle -4.17448e-015 -4.77083e-015
lhumerus -48.24 -6.33063 86.0765
lradius 34.893
lwrist 18.8292
lhand -32.2538 -18.4001
lfingers 7.12502
lthumb -5.49373 11.5087
rfemur 9.40939 -14.328 19.401
rtibia 3.13905
rfoot -21.8056 -10.8303
rtoes -15.4904
lfemur -28.3313 15.381 -0.384086
ltibia 33.5873
lfoot -14.6466 2.75791
ltoes -16.8319
308
root -28.8496 16.8201 0.616637 196.877 57.9682 190.402
lowerback 13.4788 3.73627 3.9878
upperback 3.50742 5.65957 -0.921434
thorax -3.35021 2.88281 -4.0993
lowerneck -21.7454 -1.75385 0.68027
upperneck 23.4808 -0.250551 -7.31337
head 11.229 -0.863726 -2.81466
rclavicle 1.98785e-014 -2.8625e-014
rhumerus -19.242 31.7454 -93.8628
rradius 53.6905
rwrist -10.3939
rhand -15.4001 -30.0939
rfingers 7.12502
rthumb 10.7789 -59.7973
lclavicle 1.98785e-014 -2.8625e-014
lhumerus -49.0574 -6.28216 85.6782
lradius 35.1568
lwrist 19.2948
lhand -31.869 -18.68
lfingers 7.12502
lthumb -5.12224 11.2381
rfemur 9.72192 -14.3962 19.468
rtibia 3.06043
rfoot -22.0036 -10.7862
rtoes -15.8333
lfemur -28.7132 15.828 0.0362212
ltibia 32.9537
lfoot -14.5427 3.12365
ltoes -18.1884
